<?xml version="1.0" encoding="UTF-8"?>
<svg id="Capa_1" xmlns="http://www.w3.org/2000/svg" xmlns:xlink="http://www.w3.org/1999/xlink" version="1.1" viewBox="0 0 790 513">
  <!-- Generator: Adobe Illustrator 29.0.0, SVG Export Plug-In . SVG Version: 2.1.0 Build 186)  -->
  <defs>
    <style>
      .st0 {
        fill: #fff;
      }

      .st1 {
        fill: #75fb4c;
      }
    </style>
  </defs>
  <path class="st1" d="M78.8-484H26L0-276h42.7l1.3-28h15l1.9,28h44.2l-26.3-208ZM47-338l5-81,5,81h-10Z"/>
  <polygon class="st1" points="114.7 -484 148.5 -484 178 -384 178 -484 213.6 -484 214 -276 179.7 -276 151 -377 150.7 -276 114.7 -276 114.7 -484"/>
  <polygon class="st1" points="224.4 -484 224.4 -445.2 248.2 -445.2 248.2 -276 290 -276 290 -445.3 314 -445.3 314 -484 224.4 -484"/>
  <polygon class="st1" points="592.4 -484 592.4 -445.2 616.2 -445.2 616.2 -276 658 -276 658 -445.3 682 -445.3 682 -484 592.4 -484"/>
  <polygon class="st1" points="356 -492 331 -492 343 -525 368.2 -525 356 -492"/>
  <rect class="st1" x="324.5" y="-484" width="41.9" height="208"/>
  <path class="st1" d="M429.6-484.3l-51.1.3v208h51.4c24.4,0,44.1-19.8,44.1-44.1v-120c0-24.4-19.7-44.1-44.1-44.2,0,0-.2,0-.3,0ZM432-321.3c0,3.5-2.8,6.3-6.3,6.3h-5.7v-130h5.7c3.5,0,6.3,2.8,6.3,6.3h0v117.5Z"/>
  <path class="st1" d="M538-487h-8.9c-24.3,0-44,19.7-44,44,0,0,0,0,0,0v125.9c0,24.3,19.6,44,43.9,44,0,0,0,0,0,0h8.9c24.3,0,44-19.7,44-44h0v-126c0-24.3-19.6-44-43.9-44,0,0,0,0,0,0ZM540-318c0,3.3-2.7,6-6,6s-6-2.7-6-6v-124c0-3.3,2.7-6,6-6s6,2.7,6,6v124Z"/>
  <path class="st1" d="M746-487h-8.9c-24.3,0-44,19.7-44,44h0v126c0,24.3,19.6,44,43.9,44,0,0,0,0,0,0h8.9c24.3,0,44-19.7,44-44h0v-126c0-24.3-19.6-44-43.9-44,0,0,0,0,0,0ZM747-318c0,3.3-2.7,6-6,6s-6-2.7-6-6v-124c0-3.3,2.7-6,6-6s6,2.7,6,6v124Z"/>
  <path class="st1" d="M256-261V-96.5c0,3.6-2.9,6.5-6.5,6.5s-6.5-2.9-6.5-6.5v-164.5h-42V-96c0,24.9,20.1,45,45,45h7c24.9,0,45-20.1,45-45v-165h-42Z"/>
  <polygon class="st1" points="112.9 -261 154.3 -261 154.3 -92 190.6 -92 190.6 -53 112.9 -53 112.9 -261"/>
  <path class="st1" d="M101-176v-42.5c0-25.1-20.3-45.5-45.4-45.5h-5.1c-25.1,0-45.4,20.3-45.4,45.5h0v123.1c0,25.1,20.3,45.4,45.5,45.4h5.1c25.1,0,45.5-20.3,45.5-45.5h0v-43.5h-42v44c0,3.3-2.7,6-6,6s-6-2.7-6-6v-124c0-3.3,2.7-6,6-6s6,2.7,6,6v43h42Z"/>
  <path class="st1" d="M883.1-354.5v-3.4c0-2-1.6-3.6-3.6-3.6h-.4c-2,0-3.6,1.6-3.6,3.6v9.8c0,2,1.6,3.6,3.6,3.6h.4c2,0,3.6-1.6,3.6-3.6v-3.5h-3.3v3.5c0,.3-.2.5-.5.5s-.5-.2-.5-.5v-9.9c0-.3.2-.5.5-.5s.5.2.5.5v3.4h3.3Z"/>
  <path class="st1" d="M881.3-412.5h-4.3l-2.1,17h3.5v-2.3h1.3l.2,2.3h3.6l-2.2-17ZM878.7-400.6l.4-6.6.4,6.6h-.8Z"/>
  <path class="st1" d="M858.1-321.9l8.1-25.6-20-14.1h24.7l8.1-24.4,8.1,24.4h24.7l-20,14.1,9.3,25.6-22.1-16.3-20.9,16.3ZM879-341.9l15.9,11.7-6.7-18.4,14.1-9.9h-17.3l-5.9-17.9-5.9,17.8h-17.4l14,9.9-5.9,18.4,15.1-11.7Z"/>
  <path class="st1" d="M858.1-373.9l8.1-25.6-20-14.1h24.7l8.1-24.4,8.1,24.4h24.7l-20,14.1,9.3,25.6-22.1-16.3-20.9,16.3ZM879-393.9l15.9,11.7-6.7-18.4,14.1-9.9h-17.3l-5.9-17.9-5.9,17.8h-17.4l14,9.9-5.9,18.4,15.1-11.7Z"/>
  <path class="st1" d="M402-154c-4.6-7.7-10-10-10-10,4.2-3.2,7.6-7.3,10-12,3.1-6.1,2.8-11.7,3-14.8v-25.6c0-24.6-19-44.6-43.6-44.6h-51.4V-53h52.7c23.9,0,43.3-19.4,43.3-43.3v-43.3c0-5.1-1.4-10-4-14.4ZM352-222h4.8c3.4,0,6.2,2.8,6.2,6.2v26.6c0,3.4-2.8,6.2-6.2,6.2h-4.8v-39ZM364-97.6c0,3.1-2.5,5.6-5.6,5.6h-6.4v-52h6.4c3.1,0,5.6,2.5,5.6,5.6v40.7Z"/>
  <g>
    <path class="st0" d="M78.8,41H26L0,249h42.7l1.3-28h15l1.9,28h44.2l-26.3-208ZM47,187l5-81,5,81h-10Z"/>
    <polygon class="st0" points="114.7 41 148.5 41 178 141 178 41 213.6 41 214 249 179.7 249 151 148 150.7 249 114.7 249 114.7 41"/>
    <polygon class="st0" points="224.4 41 224.4 79.8 248.2 79.8 248.2 249 290 249 290 79.7 314 79.7 314 41 224.4 41"/>
    <polygon class="st0" points="592.4 41 592.4 79.8 616.2 79.8 616.2 249 658 249 658 79.7 682 79.7 682 41 592.4 41"/>
    <polygon class="st0" points="356 33 331 33 343 0 368.2 0 356 33"/>
    <rect class="st0" x="324.5" y="41" width="41.9" height="208"/>
    <path class="st0" d="M429.6,40.7l-51.1.3v208h51.4c24.4,0,44.1-19.8,44.1-44.1v-120c0-24.4-19.7-44.1-44.1-44.2,0,0-.2,0-.3,0ZM432,203.7c0,3.5-2.8,6.3-6.3,6.3h-5.7V80h5.7c3.5,0,6.3,2.8,6.3,6.3h0v117.5Z"/>
    <path class="st0" d="M538,38h-8.9c-24.3,0-44,19.7-44,44,0,0,0,0,0,0v125.9c0,24.3,19.6,44,43.9,44,0,0,0,0,0,0h8.9c24.3,0,44-19.7,44-44h0v-126c0-24.3-19.6-44-43.9-44,0,0,0,0,0,0ZM540,207c0,3.3-2.7,6-6,6s-6-2.7-6-6v-124c0-3.3,2.7-6,6-6s6,2.7,6,6v124Z"/>
    <path class="st0" d="M746,38h-8.9c-24.3,0-44,19.7-44,44h0v126c0,24.3,19.6,44,43.9,44,0,0,0,0,0,0h8.9c24.3,0,44-19.7,44-44h0v-126c0-24.3-19.6-44-43.9-44,0,0,0,0,0,0ZM747,207c0,3.3-2.7,6-6,6s-6-2.7-6-6v-124c0-3.3,2.7-6,6-6s6,2.7,6,6v124Z"/>
    <path class="st0" d="M256,264v164.5c0,3.6-2.9,6.5-6.5,6.5s-6.5-2.9-6.5-6.5v-164.5h-42v165c0,24.9,20.1,45,45,45h7c24.9,0,45-20.1,45-45v-165h-42Z"/>
    <polygon class="st0" points="112.9 264 154.3 264 154.3 433 190.6 433 190.6 472 112.9 472 112.9 264"/>
    <path class="st0" d="M101,349v-42.5c0-25.1-20.3-45.5-45.4-45.5h-5.1c-25.1,0-45.4,20.3-45.4,45.5h0v123.1c0,25.1,20.3,45.4,45.5,45.4h5.1c25.1,0,45.5-20.3,45.5-45.5h0v-43.5h-42v44c0,3.3-2.7,6-6,6s-6-2.7-6-6v-124c0-3.3,2.7-6,6-6s6,2.7,6,6v43h42Z"/>
    <path class="st0" d="M402,371c-4.6-7.7-10-10-10-10,4.2-3.2,7.6-7.3,10-12,3.1-6.1,2.8-11.7,3-14.8v-25.6c0-24.6-19-44.6-43.6-44.6h-51.4v208h52.7c23.9,0,43.3-19.4,43.3-43.3v-43.3c0-5.1-1.4-10-4-14.4ZM352,303h4.8c3.4,0,6.2,2.8,6.2,6.2v26.6c0,3.4-2.8,6.2-6.2,6.2h-4.8v-39ZM364,427.4c0,3.1-2.5,5.6-5.6,5.6h-6.4v-52h6.4c3.1,0,5.6,2.5,5.6,5.6v40.7Z"/>
  </g>
  <g id="kSlATQ.tif">
    <image id="Layer_0" width="67" height="40" transform="translate(398.5 -695.4)" xlink:href="AC_Logo_White-1.png"/>
  </g>
</svg>